<?xml version="1.0" standalone="no"?>
<!DOCTYPE svg PUBLIC "-//W3C//DTD SVG 20010904//EN"
 "http://www.w3.org/TR/2001/REC-SVG-20010904/DTD/svg10.dtd">
<svg version="1.0" xmlns="http://www.w3.org/2000/svg"
 width="1280.000000pt" height="1280.000000pt" viewBox="0 0 1280.000000 1280.000000"
 preserveAspectRatio="xMidYMid meet">
<metadata>
Created by potrace 1.15, written by Peter Selinger 2001-2017
</metadata>
<g transform="translate(0.000000,1280.000000) scale(0.100000,-0.100000)"
fill="#000000" stroke="none">
<path d="M6050 11864 c-19 -2 -93 -9 -165 -15 -746 -62 -1552 -314 -2205 -688
-1518 -871 -2515 -2385 -2714 -4121 -50 -435 -46 -940 10 -1390 128 -1027 558
-2007 1235 -2821 134 -161 500 -527 659 -659 891 -740 1961 -1177 3110 -1270
732 -60 1516 27 2174 240 1094 355 1993 1000 2673 1920 609 824 960 1753 1065
2815 17 168 17 836 0 1000 -106 1041 -431 1929 -996 2718 -839 1174 -2101
1962 -3526 2201 -348 59 -464 68 -895 71 -214 2 -406 1 -425 -1z m43 -848 c72
-30 67 46 67 -1055 0 -830 -2 -990 -14 -994 -40 -16 -480 43 -736 98 -299 64
-617 155 -626 179 -10 25 48 177 130 342 188 377 380 707 619 1064 206 308
227 328 372 365 68 17 149 18 188 1z m1002 -16 c65 -18 202 -168 333 -362 135
-201 321 -510 437 -727 105 -196 255 -504 284 -583 l21 -58 -28 -14 c-74 -38
-504 -154 -762 -205 -213 -42 -594 -90 -608 -76 -4 3 -7 446 -7 983 0 1088 -4
1026 67 1050 40 13 206 8 263 -8z m-2411 -332 c-15 -29 -47 -89 -71 -132 -148
-261 -292 -552 -428 -866 -65 -150 -74 -165 -95 -162 -35 4 -453 211 -590 292
-141 83 -146 93 -77 167 160 174 624 474 987 638 96 44 274 113 293 115 4 0
-5 -24 -19 -52z m3632 8 c340 -102 855 -395 1173 -667 l84 -72 -32 -28 c-103
-86 -767 -421 -804 -406 -7 3 -25 38 -41 78 -101 253 -285 635 -439 911 -57
103 -107 194 -111 204 -6 15 -1 16 43 10 27 -3 84 -17 127 -30z m-5359 -1301
c18 -8 119 -62 225 -121 106 -59 304 -163 441 -231 193 -97 247 -128 247 -143
0 -11 -31 -117 -70 -237 -211 -663 -341 -1269 -390 -1813 -6 -69 -13 -140 -16
-157 l-5 -33 -753 0 c-414 0 -787 3 -830 6 -71 7 -77 9 -84 33 -28 101 34 520
133 896 156 595 463 1206 842 1680 101 126 131 148 188 139 22 -3 54 -12 72
-19z m7169 -16 c83 -57 233 -239 367 -444 373 -575 639 -1309 712 -1965 8 -74
15 -174 15 -222 l0 -87 -45 -7 c-25 -3 -417 -5 -871 -2 -714 3 -826 5 -834 18
-15 24 -28 102 -45 275 -46 466 -172 1039 -370 1679 -53 173 -54 181 -38 205
31 48 105 96 311 203 215 111 353 187 512 282 197 117 207 119 286 65z m-1728
-794 c79 -66 184 -356 306 -840 89 -357 173 -936 152 -1050 l-7 -35 -1034 0
-1033 0 -11 50 c-15 69 -15 1380 -1 1432 18 63 58 79 375 142 369 75 575 129
895 236 146 49 279 89 297 90 19 0 43 -9 61 -25z m-3688 -9 c47 -13 191 -56
320 -95 358 -109 616 -170 870 -206 157 -21 184 -30 225 -72 l35 -36 0 -754 0
-753 -1029 2 c-566 2 -1033 6 -1037 10 -40 40 23 558 117 963 74 318 217 793
270 897 38 75 87 84 229 44z m-1326 -2596 c9 -10 23 -88 41 -230 14 -118 35
-271 46 -340 70 -434 215 -979 385 -1452 35 -100 61 -185 57 -189 -4 -4 -66
-34 -138 -67 -288 -131 -576 -285 -816 -433 -70 -44 -134 -82 -144 -85 -22 -9
-73 41 -184 181 -346 434 -573 884 -744 1480 -122 421 -207 975 -167 1080 25
66 118 73 972 71 588 -1 679 -3 692 -16z m2671 9 c24 -6 55 -24 72 -41 l28
-29 3 -754 c2 -713 1 -754 -15 -759 -10 -3 -65 -10 -123 -16 -401 -42 -842
-148 -1283 -307 -265 -96 -238 -88 -253 -68 -38 51 -171 497 -253 845 -78 332
-148 773 -153 961 -4 138 17 153 232 168 183 13 1693 13 1745 0z m2717 -11
c79 -36 85 -84 42 -378 -54 -377 -157 -821 -277 -1195 -94 -292 -146 -425
-168 -425 -5 0 -67 22 -137 49 -311 120 -615 213 -897 275 -143 31 -233 48
-482 86 -72 12 -73 12 -83 48 -8 25 -10 267 -8 754 l3 716 24 25 c53 57 190
65 1176 63 696 -1 774 -3 807 -18z m2367 -6 c19 -9 44 -29 55 -45 19 -26 19
-32 7 -155 -49 -503 -230 -1121 -462 -1585 -178 -355 -436 -741 -642 -960
l-64 -69 -89 58 c-224 145 -474 284 -785 436 -198 97 -196 93 -128 305 151
471 207 665 268 933 67 291 118 595 141 835 14 152 26 193 64 216 77 47 256
55 1051 51 491 -3 554 -5 584 -20z m-5068 -2262 c19 -6 46 -22 60 -36 l24 -26
3 -731 c1 -403 -1 -869 -5 -1037 l-8 -305 -95 3 c-101 2 -213 15 -295 33 -47
10 -54 16 -112 93 -79 105 -233 332 -318 471 -222 359 -524 972 -557 1128 -10
48 -9 58 8 88 26 44 71 68 224 119 237 79 502 139 805 185 183 27 216 29 266
15z m1164 -35 c152 -23 292 -52 489 -101 319 -79 416 -120 416 -174 0 -59
-276 -629 -458 -945 -164 -286 -333 -547 -489 -756 l-64 -86 -87 -12 c-48 -7
-126 -15 -173 -18 -84 -6 -87 -5 -100 18 -20 34 -21 1999 -2 2042 22 49 60 58
223 53 80 -3 190 -12 245 -21z m-3076 -515 c11 -5 53 -87 97 -187 158 -358
328 -682 518 -989 59 -95 82 -140 72 -142 -21 -5 -256 74 -401 135 -351 148
-752 384 -1019 601 -109 89 -112 124 -18 197 164 127 600 372 692 388 14 2 29
5 33 6 5 0 16 -3 26 -9z m4720 -30 c189 -62 642 -316 687 -386 21 -31 18 -33
-106 -134 -367 -295 -813 -550 -1196 -683 -173 -59 -184 -62 -184 -40 0 24 39
98 142 274 126 214 264 485 368 724 102 233 125 265 189 265 21 0 66 -9 100
-20z"/>
</g>
</svg>
