<?xml version="1.0" standalone="no"?>
<!DOCTYPE svg PUBLIC "-//W3C//DTD SVG 20010904//EN"
 "http://www.w3.org/TR/2001/REC-SVG-20010904/DTD/svg10.dtd">
<svg version="1.0" xmlns="http://www.w3.org/2000/svg"
 width="880.000000pt" height="921.000000pt" viewBox="0 0 880.000000 921.000000"
 preserveAspectRatio="xMidYMid meet">

<g transform="translate(0.000000,921.000000) scale(0.100000,-0.100000)">
<path d="M4215 8804 c-27 -2 -109 -8 -181 -14 -711 -55 -1464 -346 -2054 -794
-828 -628 -1364 -1523 -1539 -2571 -56 -334 -54 -911 4 -1260 201 -1200 905
-2215 1965 -2830 590 -343 1290 -528 2005 -529 245 0 409 13 625 50 1736 295
3070 1657 3319 3389 58 401 53 812 -15 1223 -186 1135 -895 2177 -1879 2764
-520 310 -1105 500 -1717 557 -121 12 -457 21 -533 15z m-1310 -1846 c69 -18
167 -72 216 -119 59 -57 123 -188 140 -283 29 -168 -27 -334 -155 -454 -61
-58 -122 -91 -222 -121 -91 -27 -141 -27 -241 3 -193 56 -318 181 -365 368
-95 376 244 704 627 606z m303 -2870 l2 -1448 -107 -2 c-324 -5 -656 -6 -710
-1 l-63 5 0 1449 0 1449 438 -2 437 -3 3 -1447z m1440 1245 c1 -112 4 -203 5
-203 1 0 52 49 112 108 115 114 193 167 316 216 125 49 223 67 394 73 267 9
446 -21 615 -103 78 -39 109 -61 175 -128 83 -84 130 -160 178 -286 49 -131
67 -239 77 -458 13 -301 32 -1419 28 -1687 l-3 -230 -445 0 -445 0 -6 880 c-4
622 -9 903 -18 960 -22 143 -86 243 -180 284 -104 45 -348 47 -491 5 -108 -31
-201 -111 -246 -208 -46 -102 -52 -224 -63 -1199 -5 -389 -12 -711 -15 -715
-4 -4 -200 -6 -434 -6 l-427 1 0 1436 c0 789 4 1439 8 1444 13 13 205 19 547
19 l315 -1 3 -202z"/>
</g>
</svg>
